<mxfile host="app.diagrams.net" agent="Mozilla/5.0 (Windows NT 10.0; Win64; x64) AppleWebKit/537.36 (KHTML, like Gecko) Chrome/114.0.0.0 YaBrowser/23.7.1.1266 (corp) Yowser/2.5 Safari/537.36" version="28.2.4">
  <diagram name="Страница — 1" id="UpHVfGODGcc8oL-YeS2_">
    <mxGraphModel dx="1426" dy="830" grid="1" gridSize="10" guides="1" tooltips="1" connect="1" arrows="1" fold="1" page="1" pageScale="1" pageWidth="827" pageHeight="1169" math="0" shadow="0">
      <root>
        <mxCell id="0" />
        <mxCell id="1" parent="0" />
        <mxCell id="2XlzKrUuhMeMiRopd6cj-3" value="&lt;font face=&quot;Times New Roman&quot; style=&quot;font-size: 18px;&quot;&gt;Task&lt;/font&gt;" style="rounded=1;whiteSpace=wrap;html=1;" vertex="1" parent="1">
          <mxGeometry x="30" y="320" width="121" height="80" as="geometry" />
        </mxCell>
        <mxCell id="2XlzKrUuhMeMiRopd6cj-33" style="edgeStyle=orthogonalEdgeStyle;rounded=0;orthogonalLoop=1;jettySize=auto;html=1;exitX=0;exitY=0.5;exitDx=0;exitDy=0;entryX=1;entryY=0.5;entryDx=0;entryDy=0;" edge="1" parent="1" source="2XlzKrUuhMeMiRopd6cj-5" target="2XlzKrUuhMeMiRopd6cj-9">
          <mxGeometry relative="1" as="geometry" />
        </mxCell>
        <mxCell id="2XlzKrUuhMeMiRopd6cj-34" style="edgeStyle=orthogonalEdgeStyle;rounded=0;orthogonalLoop=1;jettySize=auto;html=1;exitX=1;exitY=0.5;exitDx=0;exitDy=0;entryX=0;entryY=0.5;entryDx=0;entryDy=0;" edge="1" parent="1" source="2XlzKrUuhMeMiRopd6cj-5" target="2XlzKrUuhMeMiRopd6cj-10">
          <mxGeometry relative="1" as="geometry" />
        </mxCell>
        <mxCell id="2XlzKrUuhMeMiRopd6cj-5" value="&lt;font face=&quot;Times New Roman&quot; style=&quot;font-size: 18px;&quot;&gt;User&lt;/font&gt;" style="rounded=1;whiteSpace=wrap;html=1;" vertex="1" parent="1">
          <mxGeometry x="360" y="320" width="121" height="80" as="geometry" />
        </mxCell>
        <mxCell id="2XlzKrUuhMeMiRopd6cj-6" value="&lt;font face=&quot;Times New Roman&quot; style=&quot;font-size: 18px;&quot;&gt;Category&lt;/font&gt;" style="rounded=1;whiteSpace=wrap;html=1;" vertex="1" parent="1">
          <mxGeometry x="690" y="320" width="121" height="80" as="geometry" />
        </mxCell>
        <mxCell id="2XlzKrUuhMeMiRopd6cj-32" style="edgeStyle=orthogonalEdgeStyle;rounded=0;orthogonalLoop=1;jettySize=auto;html=1;exitX=0;exitY=0.5;exitDx=0;exitDy=0;entryX=1;entryY=0.5;entryDx=0;entryDy=0;" edge="1" parent="1" source="2XlzKrUuhMeMiRopd6cj-9" target="2XlzKrUuhMeMiRopd6cj-3">
          <mxGeometry relative="1" as="geometry" />
        </mxCell>
        <mxCell id="2XlzKrUuhMeMiRopd6cj-9" value="&lt;font style=&quot;font-size: 18px;&quot; face=&quot;Times New Roman&quot;&gt;sets&lt;/font&gt;" style="rhombus;whiteSpace=wrap;html=1;" vertex="1" parent="1">
          <mxGeometry x="200" y="320" width="106" height="80" as="geometry" />
        </mxCell>
        <mxCell id="2XlzKrUuhMeMiRopd6cj-35" style="edgeStyle=orthogonalEdgeStyle;rounded=0;orthogonalLoop=1;jettySize=auto;html=1;exitX=1;exitY=0.5;exitDx=0;exitDy=0;entryX=0;entryY=0.5;entryDx=0;entryDy=0;" edge="1" parent="1" source="2XlzKrUuhMeMiRopd6cj-10" target="2XlzKrUuhMeMiRopd6cj-6">
          <mxGeometry relative="1" as="geometry" />
        </mxCell>
        <mxCell id="2XlzKrUuhMeMiRopd6cj-10" value="&lt;font face=&quot;Times New Roman&quot; style=&quot;font-size: 18px;&quot;&gt;creates&lt;/font&gt;" style="rhombus;whiteSpace=wrap;html=1;" vertex="1" parent="1">
          <mxGeometry x="540" y="320" width="106" height="80" as="geometry" />
        </mxCell>
        <mxCell id="2XlzKrUuhMeMiRopd6cj-22" value="&lt;font style=&quot;font-size: 18px;&quot; face=&quot;Times New Roman&quot;&gt;id&lt;/font&gt;" style="ellipse;whiteSpace=wrap;html=1;" vertex="1" parent="1">
          <mxGeometry x="30" y="250" width="150" height="50" as="geometry" />
        </mxCell>
        <mxCell id="2XlzKrUuhMeMiRopd6cj-23" value="&lt;font face=&quot;Times New Roman&quot; style=&quot;font-size: 18px;&quot;&gt;title&lt;/font&gt;" style="ellipse;whiteSpace=wrap;html=1;" vertex="1" parent="1">
          <mxGeometry x="30" y="170" width="150" height="50" as="geometry" />
        </mxCell>
        <mxCell id="2XlzKrUuhMeMiRopd6cj-24" value="&lt;font face=&quot;Times New Roman&quot; style=&quot;font-size: 18px;&quot;&gt;user_id&lt;/font&gt;" style="ellipse;whiteSpace=wrap;html=1;" vertex="1" parent="1">
          <mxGeometry x="30" y="90" width="150" height="50" as="geometry" />
        </mxCell>
        <mxCell id="2XlzKrUuhMeMiRopd6cj-25" value="&lt;font face=&quot;Times New Roman&quot; style=&quot;font-size: 18px;&quot;&gt;id&lt;/font&gt;" style="ellipse;whiteSpace=wrap;html=1;" vertex="1" parent="1">
          <mxGeometry x="360" y="240" width="150" height="50" as="geometry" />
        </mxCell>
        <mxCell id="2XlzKrUuhMeMiRopd6cj-26" value="&lt;font face=&quot;Times New Roman&quot; style=&quot;font-size: 18px;&quot;&gt;category_id&lt;/font&gt;" style="ellipse;whiteSpace=wrap;html=1;" vertex="1" parent="1">
          <mxGeometry x="30" y="10" width="150" height="50" as="geometry" />
        </mxCell>
        <mxCell id="2XlzKrUuhMeMiRopd6cj-27" value="&lt;font face=&quot;Times New Roman&quot; style=&quot;font-size: 18px;&quot;&gt;name&lt;/font&gt;" style="ellipse;whiteSpace=wrap;html=1;" vertex="1" parent="1">
          <mxGeometry x="360" y="160" width="150" height="50" as="geometry" />
        </mxCell>
        <mxCell id="2XlzKrUuhMeMiRopd6cj-28" value="&lt;font face=&quot;Times New Roman&quot; style=&quot;font-size: 18px;&quot;&gt;email&lt;/font&gt;" style="ellipse;whiteSpace=wrap;html=1;" vertex="1" parent="1">
          <mxGeometry x="360" y="80" width="150" height="50" as="geometry" />
        </mxCell>
        <mxCell id="2XlzKrUuhMeMiRopd6cj-29" value="&lt;font face=&quot;Times New Roman&quot; style=&quot;font-size: 18px;&quot;&gt;id&lt;/font&gt;" style="ellipse;whiteSpace=wrap;html=1;" vertex="1" parent="1">
          <mxGeometry x="690" y="240" width="150" height="50" as="geometry" />
        </mxCell>
        <mxCell id="2XlzKrUuhMeMiRopd6cj-30" value="&lt;font face=&quot;Times New Roman&quot; style=&quot;font-size: 18px;&quot;&gt;name&lt;/font&gt;" style="ellipse;whiteSpace=wrap;html=1;" vertex="1" parent="1">
          <mxGeometry x="690" y="160" width="150" height="50" as="geometry" />
        </mxCell>
        <mxCell id="2XlzKrUuhMeMiRopd6cj-31" value="&lt;font style=&quot;font-size: 18px;&quot; face=&quot;Times New Roman&quot;&gt;color&lt;/font&gt;" style="ellipse;whiteSpace=wrap;html=1;" vertex="1" parent="1">
          <mxGeometry x="690" y="80" width="150" height="50" as="geometry" />
        </mxCell>
        <mxCell id="2XlzKrUuhMeMiRopd6cj-37" value="" style="endArrow=none;html=1;rounded=0;entryX=0;entryY=0.25;entryDx=0;entryDy=0;exitX=0;exitY=0.5;exitDx=0;exitDy=0;" edge="1" parent="1" source="2XlzKrUuhMeMiRopd6cj-28" target="2XlzKrUuhMeMiRopd6cj-5">
          <mxGeometry width="50" height="50" relative="1" as="geometry">
            <mxPoint x="330" y="110" as="sourcePoint" />
            <mxPoint x="440" y="380" as="targetPoint" />
          </mxGeometry>
        </mxCell>
        <mxCell id="2XlzKrUuhMeMiRopd6cj-38" value="" style="endArrow=none;html=1;rounded=0;entryX=0;entryY=0.25;entryDx=0;entryDy=0;exitX=0;exitY=0.5;exitDx=0;exitDy=0;" edge="1" parent="1" source="2XlzKrUuhMeMiRopd6cj-31" target="2XlzKrUuhMeMiRopd6cj-6">
          <mxGeometry width="50" height="50" relative="1" as="geometry">
            <mxPoint x="390" y="430" as="sourcePoint" />
            <mxPoint x="440" y="380" as="targetPoint" />
          </mxGeometry>
        </mxCell>
        <mxCell id="2XlzKrUuhMeMiRopd6cj-39" value="" style="endArrow=none;html=1;rounded=0;exitX=0;exitY=0.25;exitDx=0;exitDy=0;entryX=0;entryY=0.5;entryDx=0;entryDy=0;" edge="1" parent="1" source="2XlzKrUuhMeMiRopd6cj-3" target="2XlzKrUuhMeMiRopd6cj-26">
          <mxGeometry width="50" height="50" relative="1" as="geometry">
            <mxPoint x="390" y="430" as="sourcePoint" />
            <mxPoint x="440" y="380" as="targetPoint" />
          </mxGeometry>
        </mxCell>
      </root>
    </mxGraphModel>
  </diagram>
</mxfile>
